<?xml version="1.0" standalone="no"?>
<!DOCTYPE svg PUBLIC "-//W3C//DTD SVG 20010904//EN"
 "http://www.w3.org/TR/2001/REC-SVG-20010904/DTD/svg10.dtd">
<svg version="1.0" xmlns="http://www.w3.org/2000/svg"
 width="512.000000pt" height="512.000000pt" viewBox="0 0 512.000000 512.000000"
 preserveAspectRatio="xMidYMid meet">
<metadata>
Created by potrace 1.11, written by Peter Selinger 2001-2013
</metadata>
<g transform="translate(0.000000,512.000000) scale(0.100000,-0.100000)"
fill="#000000" stroke="none">
<path d="M3145 5111 c-42 -18 -74 -66 -145 -218 -83 -182 -135 -308 -179 -443
-22 -66 -42 -106 -65 -130 -18 -19 -41 -49 -51 -66 l-17 -31 -67 26 c-57 22
-82 25 -191 26 -122 0 -127 -1 -192 -33 -77 -38 -167 -128 -212 -212 -16 -30
-30 -57 -32 -58 -1 -2 -33 14 -71 36 -118 70 -231 97 -297 72 -95 -36 -196
-234 -232 -454 l-17 -106 -54 -25 c-145 -66 -260 -269 -280 -493 -6 -68 -8
-73 -32 -78 -147 -33 -263 -80 -358 -145 -69 -47 -178 -154 -228 -224 -131
-184 -200 -422 -198 -685 1 -178 27 -294 102 -445 27 -55 47 -103 44 -108 -2
-4 -31 -21 -64 -38 -66 -33 -89 -65 -72 -102 6 -13 52 -45 117 -80 131 -72
141 -86 114 -170 -10 -32 -23 -101 -28 -152 -17 -148 10 -266 91 -401 76 -127
329 -355 408 -370 50 -10 260 13 381 40 374 85 561 237 614 498 30 146 12 294
-57 467 -23 58 -42 109 -42 113 0 3 41 27 90 52 50 25 120 70 157 100 l66 55
16 -24 c19 -29 56 -41 83 -27 10 6 36 43 57 84 75 140 77 142 189 202 106 56
117 67 117 112 0 26 -14 36 -157 115 -69 38 -74 43 -120 127 -26 48 -61 123
-78 167 -42 109 -95 202 -172 297 -47 59 -62 85 -58 99 10 31 -20 66 -80 97
-39 19 -68 44 -100 87 -60 79 -133 226 -145 294 -9 47 -8 59 10 88 32 54 27
103 -17 155 -20 23 -50 72 -67 108 -58 122 -46 329 28 492 43 96 40 95 131 49
152 -76 253 -179 319 -323 45 -100 62 -107 190 -85 51 10 108 17 127 17 l34 0
0 -63 c0 -81 29 -128 113 -184 51 -34 169 -80 252 -97 15 -3 42 -28 67 -60 53
-70 138 -137 228 -181 167 -83 315 -91 570 -31 244 57 217 58 243 -15 12 -34
21 -63 19 -65 -3 -3 -174 -55 -368 -112 -64 -19 -71 -19 -380 -1 -962 54 -922
53 -958 35 -54 -28 -71 -68 -71 -166 0 -152 50 -274 158 -391 185 -200 491
-277 747 -189 186 64 338 206 400 372 17 45 20 48 54 48 33 0 39 -5 71 -56 51
-81 159 -178 247 -220 97 -47 222 -69 315 -57 l67 9 30 -66 c149 -322 18 -689
-317 -889 -136 -81 -299 -124 -519 -138 l-102 -6 -89 85 c-102 96 -208 158
-318 184 -123 29 -300 9 -421 -48 -77 -36 -93 -121 -31 -173 36 -30 70 -32
137 -5 174 68 339 37 476 -91 136 -128 182 -245 249 -645 27 -156 40 -188 90
-212 37 -19 80 -7 112 31 24 28 26 37 21 87 -10 91 -55 327 -88 458 -17 68
-30 124 -28 126 2 1 54 8 116 14 387 42 682 216 856 507 147 246 164 540 46
795 l-31 67 75 75 c136 136 203 324 179 503 -16 113 -30 155 -63 186 -49 46
-77 45 -273 -12 -98 -28 -181 -47 -185 -43 -4 5 -18 37 -30 71 l-22 63 25 33
c46 60 51 152 12 212 -9 13 -42 42 -74 64 l-59 40 34 68 c42 86 63 183 62 298
0 215 -76 440 -168 502 -100 67 -359 -17 -552 -179 -69 -58 -108 -75 -94 -40
52 120 58 149 59 252 1 64 -4 120 -13 143 -11 32 -11 58 -1 150 8 68 11 191 9
312 -4 177 -7 204 -24 234 -34 57 -112 85 -170 62z m-9 -493 c-4 -46 -12 -110
-17 -144 l-10 -61 -49 -15 -49 -16 25 67 c39 106 99 251 103 251 2 0 1 -37 -3
-82z m2 -415 c-3 -63 -10 -99 -25 -128 -20 -38 -25 -41 -147 -81 l-126 -43 0
29 c0 90 46 202 96 235 24 15 175 72 198 74 5 1 6 -38 4 -86z m-562 -155 l59
-23 -4 -74 c-3 -69 -6 -78 -46 -132 -23 -32 -51 -78 -61 -102 l-18 -44 -89 -7
c-49 -4 -101 -9 -115 -12 -24 -5 -30 0 -51 40 -13 25 -39 64 -59 86 -34 41
-35 42 -21 83 25 77 89 159 150 190 49 26 61 29 125 24 40 -3 97 -16 130 -29z
m1262 -81 c28 -58 53 -184 54 -277 1 -102 -17 -203 -36 -197 -6 2 -25 37 -43
78 -49 114 -109 197 -183 252 -36 27 -66 53 -68 57 -6 16 226 123 253 116 6
-1 16 -14 23 -29z m-824 -108 c-99 -63 -185 -168 -219 -270 -16 -47 -18 -49
-73 -65 -31 -8 -72 -20 -90 -26 -18 -5 -36 -7 -39 -4 -9 9 26 134 51 185 44
86 51 91 232 152 93 32 173 58 178 58 6 1 -12 -13 -40 -30z m349 -49 c153 -25
266 -121 330 -278 56 -137 164 -275 271 -346 65 -43 78 -59 74 -88 -4 -32 -30
-42 -276 -104 -255 -65 -366 -77 -472 -50 -160 40 -292 141 -358 274 -36 74
-37 79 -37 186 0 100 3 117 27 169 53 114 178 213 298 236 62 12 77 12 143 1z
m-603 -448 c0 -20 4 -52 10 -71 9 -32 9 -33 -18 -26 -35 8 -145 68 -149 81 -2
7 108 46 150 53 4 0 7 -16 7 -37z m-1281 -216 c6 -7 13 -64 15 -127 2 -80 9
-133 23 -176 l20 -61 -36 -62 c-34 -58 -43 -66 -146 -124 -67 -37 -111 -68
-113 -79 -9 -48 7 -65 114 -123 113 -61 115 -62 190 -203 68 -127 105 -122
184 25 54 100 81 134 103 134 14 0 110 -115 155 -185 41 -66 68 -128 87 -201
14 -54 14 -62 -1 -95 -13 -30 -33 -46 -112 -89 -189 -102 -190 -127 -8 -225
l79 -43 -49 -49 c-59 -59 -152 -113 -266 -154 -110 -39 -124 -47 -137 -76 -20
-44 -12 -80 33 -155 116 -192 154 -386 105 -543 -17 -55 -31 -78 -73 -121 -92
-91 -254 -156 -469 -188 -167 -25 -191 -23 -253 25 -98 76 -199 190 -240 275
-37 74 -39 82 -39 175 0 76 4 101 16 115 9 11 42 64 72 119 l55 100 108 60
c84 46 111 66 118 88 15 41 2 55 -118 123 l-107 60 -62 109 c-37 65 -70 111
-83 116 -32 11 -66 -11 -93 -60 l-24 -44 -18 34 c-48 89 -71 190 -76 329 -14
381 146 682 434 816 74 35 176 64 228 64 107 1 145 43 145 162 0 162 50 318
122 384 l40 36 33 -77 c18 -42 38 -82 44 -89z m191 -515 c26 -53 38 -64 97
-97 49 -28 63 -40 52 -46 -8 -5 -37 -22 -66 -38 -41 -24 -58 -41 -84 -90 -17
-33 -35 -60 -38 -60 -3 0 -20 26 -37 58 -29 55 -50 73 -129 118 l-38 21 64 35
c55 29 69 44 99 96 19 34 38 62 42 62 4 0 21 -27 38 -59z m593 -840 c26 -44
44 -61 96 -89 l63 -35 -55 -32 c-75 -42 -89 -56 -117 -115 -13 -28 -27 -50
-31 -50 -4 0 -22 27 -40 61 -26 48 -43 66 -83 89 -28 16 -58 33 -66 38 -11 7
2 18 52 46 59 33 70 44 100 102 22 43 36 60 41 52 4 -7 22 -37 40 -67z m-1598
-459 c25 -47 40 -62 92 -92 35 -19 63 -37 63 -40 0 -3 -28 -20 -61 -38 -36
-20 -68 -46 -78 -64 -9 -16 -25 -45 -37 -65 l-21 -35 -35 63 c-29 55 -44 69
-96 99 -34 19 -62 38 -62 41 0 3 27 21 60 38 51 28 65 41 96 97 20 36 39 62
42 59 4 -3 20 -32 37 -63z"/>
<path d="M3995 4701 c-63 -27 -80 -106 -31 -147 59 -51 146 -15 146 60 0 61
-63 109 -115 87z"/>
<path d="M159 3737 c-87 -58 -72 -172 27 -206 37 -13 44 -12 80 5 26 13 45 32
58 58 17 36 18 43 5 80 -16 46 -67 86 -109 86 -15 0 -42 -10 -61 -23z"/>
<path d="M3755 1836 c-16 -8 -43 -27 -59 -44 l-29 -31 -33 29 c-97 85 -220 50
-287 -82 -34 -68 -34 -101 3 -196 41 -106 91 -169 165 -207 51 -26 69 -30 139
-29 105 0 166 26 236 100 55 58 93 130 111 210 11 48 10 56 -15 110 -57 124
-146 178 -231 140z m89 -147 c14 -17 29 -41 32 -53 7 -29 -25 -113 -60 -159
-73 -96 -232 -104 -299 -15 -36 46 -71 141 -63 171 8 35 45 77 66 77 20 0 66
-50 83 -90 17 -40 38 -60 63 -60 41 0 55 12 80 69 25 55 50 91 65 91 4 0 19
-14 33 -31z"/>
</g>
</svg>
